<svg xmlns="http://www.w3.org/2000/svg" xmlns:xlink="http://www.w3.org/1999/xlink" viewBox="0 0 967.32 595.28"><defs><style>.cls-1{fill:url(#linear-gradient);}.cls-2{fill:url(#linear-gradient-2);}</style><linearGradient id="linear-gradient" x1="258.65" y1="359.04" x2="463.25" y2="240.91" gradientUnits="userSpaceOnUse"><stop offset="0" stop-color="#f9df7b"/><stop offset="0.01" stop-color="#f7dc77"/><stop offset="0.09" stop-color="#e4c15a"/><stop offset="0.17" stop-color="#d7ae44"/><stop offset="0.24" stop-color="#cfa237"/><stop offset="0.32" stop-color="#cc9e33"/><stop offset="0.41" stop-color="#cfa237"/><stop offset="0.5" stop-color="#d6ad44"/><stop offset="0.59" stop-color="#e3c059"/><stop offset="0.69" stop-color="#f6da76"/><stop offset="0.71" stop-color="#f9df7b"/><stop offset="1" stop-color="#c49328"/></linearGradient><linearGradient id="linear-gradient-2" x1="410.36" y1="219.08" x2="319.64" y2="376.2" gradientUnits="userSpaceOnUse"><stop offset="0" stop-color="#b57e10"/><stop offset="0.22" stop-color="#e5c35c"/><stop offset="0.33" stop-color="#f9df7b"/><stop offset="0.52" stop-color="#fff3a6"/><stop offset="0.73" stop-color="#f9df7b"/><stop offset="1" stop-color="#d9a734"/></linearGradient></defs><title>gold coin</title><g id="Gradients"><rect class="cls-1" x="241.79" y="262.68" width="246.42" height="69.91" rx="5.46"/><path class="cls-2" d="M482.74,333.43H247.26a6.31,6.31,0,0,1-6.31-6.3v-59a6.32,6.32,0,0,1,6.31-6.31H482.74a6.32,6.32,0,0,1,6.31,6.31v59A6.31,6.31,0,0,1,482.74,333.43ZM247.26,263.52a4.64,4.64,0,0,0-4.63,4.63v59a4.63,4.63,0,0,0,4.63,4.62H482.74a4.62,4.62,0,0,0,4.62-4.62v-59a4.63,4.63,0,0,0-4.62-4.63Z"/></g></svg>