<svg xmlns="http://www.w3.org/2000/svg" xmlns:xlink="http://www.w3.org/1999/xlink" viewBox="0 0 967.32 595.28"><defs><style>.cls-1{fill:url(#linear-gradient);}.cls-2{fill:url(#linear-gradient-2);}</style><linearGradient id="linear-gradient" x1="260.67" y1="367.79" x2="469.31" y2="247.33" gradientUnits="userSpaceOnUse"><stop offset="0" stop-color="#6d6e71"/><stop offset="0.32" stop-color="#bdbfc2"/><stop offset="0.53" stop-color="#fdfdff"/><stop offset="0.54" stop-color="#fbfbfd"/><stop offset="0.58" stop-color="#f7f7f9"/><stop offset="0.73" stop-color="#b6b8bd"/><stop offset="0.77" stop-color="#a3a5a9"/><stop offset="0.83" stop-color="#8f9195"/><stop offset="0.89" stop-color="#848689"/><stop offset="0.94" stop-color="#808285"/><stop offset="1" stop-color="#a2a4a8"/></linearGradient><linearGradient id="linear-gradient-2" x1="411.2" y1="228.51" x2="320.48" y2="385.63" gradientUnits="userSpaceOnUse"><stop offset="0" stop-color="#d1d3d4"/><stop offset="0.13" stop-color="#fff"/><stop offset="0.34" stop-color="#b2b3b5"/><stop offset="0.54" stop-color="#fff"/><stop offset="0.7" stop-color="#a7a9ac"/><stop offset="0.72" stop-color="#b8babc"/><stop offset="0.78" stop-color="#dfdfe1"/><stop offset="0.83" stop-color="#f6f7f7"/><stop offset="0.86" stop-color="#fff"/><stop offset="1" stop-color="#939598"/></linearGradient></defs><title>Silver coin</title><g id="Gradients"><rect class="cls-1" x="242.63" y="272.11" width="246.42" height="69.91" rx="5.46"/><path class="cls-2" d="M483.58,342.86H248.1a6.31,6.31,0,0,1-6.31-6.3v-59a6.32,6.32,0,0,1,6.31-6.31H483.58a6.32,6.32,0,0,1,6.31,6.31v59A6.31,6.31,0,0,1,483.58,342.86ZM248.1,273a4.64,4.64,0,0,0-4.63,4.63v59a4.63,4.63,0,0,0,4.63,4.62H483.58a4.63,4.63,0,0,0,4.63-4.62v-59a4.64,4.64,0,0,0-4.63-4.63Z"/></g></svg>